<svg id="レイヤー_1" data-name="レイヤー 1" xmlns="http://www.w3.org/2000/svg" viewBox="0 0 277.72 57.95"><defs><style>.cls-1{fill:#c8b695;}</style></defs><title>pitt-wordlogo-BEIGE</title><path class="cls-1" d="M340,281.57a6.1,6.1,0,1,0-5.88-6.09A6,6,0,0,0,340,281.57Z" transform="translate(-282.08 -268.66)"/><path class="cls-1" d="M559.8,297.14c0-.3-.07-.6-.1-.9a11.13,11.13,0,0,0-8.4-9.6,16.56,16.56,0,0,0-3.67-.6c-1.47-.07-3.09-.11-5.09-.11s-3.56,0-5.06.11a15.35,15.35,0,0,0-5.61,1.31,11,11,0,0,0-6.46,8.89c-.16,1.36-.3,2.76-.4,4.15a83.14,83.14,0,0,0,0,12,27.91,27.91,0,0,0,.25,3.74v.07c0,.08,0,.24.09.46s.08.4.12.55a9.91,9.91,0,0,0,.59,1.77c.94,2.24,4,7.47,12.44,7.47h0c.39,0,.8,0,1.21,0a.94.94,0,0,0,.41-.08,1.05,1.05,0,0,0,0-2c-.37-.16-1.28-.55-1.79-.83l-.26-.15a8.33,8.33,0,0,1-2.43-2,5.59,5.59,0,0,1-.93-1.58,13.91,13.91,0,0,1-1-5.36V304.42c0-3.18.21-6.38.49-9.51.41-4.59,3.16-6.77,8.37-6.65,5.18-.15,7.93,2.05,8.34,6.65.09,1,.17,2.11.25,3.22-.38,3.68-1.78,5.18-1.86,5.26a9.33,9.33,0,0,1-2.63,2.07c-.58.31-1.61.75-1.81.83a1.08,1.08,0,0,0-.69,1,1.06,1.06,0,0,0,1,1.06,17.29,17.29,0,0,0,6.25-.69,11.83,11.83,0,0,0,7.44-6.74,10.07,10.07,0,0,0,.59-1.76c0-.17.08-.35.12-.56s.07-.36.09-.5.07-.56.1-.88C559.81,297.2,559.8,297.16,559.8,297.14Z" transform="translate(-282.08 -268.66)"/><path class="cls-1" d="M349.56,324.51l-.08.21.06-.22c-.2-.09-1.24-.53-1.78-.83a9.38,9.38,0,0,1-2.7-2.13s-1.87-1.93-1.9-6.94V290.24a2.49,2.49,0,0,0-.39-1.22l-.17-.25-.34-.4-.14-.15c-.33-.35-.63-.63-.73-.73a1.42,1.42,0,0,0-.39-.19,1.86,1.86,0,0,0-.71.06h0c-.91.28-5.47,1.81-5.73,5.21a24.7,24.7,0,0,0,0,2.58v16.9a28.86,28.86,0,0,0,.24,4.23s0,.06,0,.07,0,.23.08.46.08.39.12.55a12.07,12.07,0,0,0,.59,1.76c.94,2.24,4,7.47,12.45,7.47h0l1.22,0a1.08,1.08,0,0,0,1.06-1.07A1,1,0,0,0,349.56,324.51Z" transform="translate(-282.08 -268.66)"/><path class="cls-1" d="M405.78,284.91c-1.63-.09-3.36-.12-5.24-.12s-3.56,0-5.25.12c-6.94.35-11.71,4.39-12.46,10.53a85.29,85.29,0,0,0-.1,20.13c.77,6.57,5.61,10.65,12.95,10.92,1.31.05,2.72.07,4.3.07h1.11c1.58,0,3,0,4.3-.07,7.34-.27,12.19-4.35,12.95-10.92a85.29,85.29,0,0,0-.1-20.13C417.49,289.3,412.72,285.26,405.78,284.91Zm3.45,32.22c-.41,4.82-3.06,7.07-8.34,7.07h-.73c-5.27,0-7.91-2.25-8.32-7.07a133.63,133.63,0,0,1,.05-23.07c.42-4.63,3.11-6.89,8.23-6.89H401c5.11,0,7.8,2.26,8.22,6.89A133.63,133.63,0,0,1,409.23,317.13Z" transform="translate(-282.08 -268.66)"/><path class="cls-1" d="M519.09,324.38l-.08.22.07-.22s-1.19-.51-1.79-.83a9.38,9.38,0,0,1-2.7-2.13s-1.87-1.94-1.9-6.94v-1.85c0-.55,0-.91,0-1V300.53c-.09-1.24-.22-2.45-.36-3.6a10.92,10.92,0,0,0-5.45-8.37,12.68,12.68,0,0,0-1.7-.82,29.84,29.84,0,0,0-16.67-1.37l-.08,0a30.45,30.45,0,0,1-6.05.86,13.29,13.29,0,0,1-4.59-.91,21,21,0,0,0-2.32-1l-.5-.16a3.58,3.58,0,0,0-.41-.09,8.26,8.26,0,0,0-1.24-.13h-.9a3,3,0,0,0-.5,0,.43.43,0,0,0-.34.26.49.49,0,0,0,0,.36c.06.18.12.39.19.6l.18.52.24.59c.06.14.11.26.17.37s.26.5.39.73a5.13,5.13,0,0,0,.56.76l.19.19a15.39,15.39,0,0,1,2,2.56,22.61,22.61,0,0,1,2.12,9.28v10.67a31.77,31.77,0,0,0,.25,4.26l.22,0h0l-.22.1c0,.07,0,.22.08.44a5,5,0,0,0,.13.55,10.81,10.81,0,0,0,.58,1.77,11.88,11.88,0,0,0,7.88,6.88,17.54,17.54,0,0,0,5.79.55,1.06,1.06,0,0,0,.38-2.05c-.47-.2-1.32-.57-1.8-.83a9.21,9.21,0,0,1-2.69-2.13,8,8,0,0,1-1.64-4l0-3.12c0-4.29-.07-8.72,0-13.1.09-1.89.21-3.78.38-5.62.4-4.48,3-6.66,7.91-6.66h.82c4.92,0,7.5,2.19,7.9,6.66.19,2.14.33,4.33.41,6.49v9.85c0,.09,0,.95.05,2a21,21,0,0,0,.21,2.22l.22,0h0l-.22.11c0,.09,0,.24.08.43s.08.39.12.55A11.82,11.82,0,0,0,505,319a12.12,12.12,0,0,0,3.13,4.34,13.66,13.66,0,0,0,9.3,3.13c.4,0,.82,0,1.24,0a1.06,1.06,0,0,0,1.06-1.06A1,1,0,0,0,519.09,324.38Z" transform="translate(-282.08 -268.66)"/><path class="cls-1" d="M471.61,324.39h0c-.37-.16-1.29-.56-1.8-.83a9.34,9.34,0,0,1-2.69-2.13s-1.88-1.94-1.9-6.94v-1.85c0-.49,0-.85,0-1V300.52c-.1-1.22-.22-2.43-.36-3.59a10.93,10.93,0,0,0-5.45-8.37,12.8,12.8,0,0,0-1.71-.82A29.84,29.84,0,0,0,441,286.37l-.08,0a30.48,30.48,0,0,1-6,.86,13.34,13.34,0,0,1-4.59-.91,22.76,22.76,0,0,0-2.32-1l-.51-.16a3.13,3.13,0,0,0-.41-.09,8.12,8.12,0,0,0-1.24-.13h-.9a2.93,2.93,0,0,0-.49,0,.45.45,0,0,0-.35.27.53.53,0,0,0,0,.39c0,.18.11.37.18.56s.17.48.25.7l.16.4,0,.09c0,.1.09.2.14.29.13.26.25.5.38.73a7.09,7.09,0,0,0,.56.76l.19.19a15.37,15.37,0,0,1,2,2.56,22.46,22.46,0,0,1,2.11,9.28v10.69a32.63,32.63,0,0,0,.25,4.22s0,.06,0,.07a3.28,3.28,0,0,0,.08.45c0,.21.08.39.12.55a9.91,9.91,0,0,0,.59,1.77,11.88,11.88,0,0,0,7.87,6.88,17,17,0,0,0,4.57.59c.4,0,.81,0,1.22,0a1.07,1.07,0,0,0,1.07-1.06,1.05,1.05,0,0,0-.7-1c-.12-.06-1.21-.52-1.79-.83a9.34,9.34,0,0,1-2.69-2.13,8.13,8.13,0,0,1-1.64-4l0-2.89c0-4.34-.07-8.83,0-13.33.08-1.89.21-3.78.37-5.62.4-4.47,3-6.66,7.93-6.66h.4c5.17-.11,7.9,2.06,8.31,6.65.19,2.12.33,4.31.41,6.49v9.85c0,.09,0,1,0,2,.05.85.12,1.59.21,2.2v.06l.09.46c0,.21.08.39.12.55a9.91,9.91,0,0,0,.59,1.77,12,12,0,0,0,3.12,4.34,13.69,13.69,0,0,0,9.31,3.13c.41,0,.82,0,1.23,0a1.07,1.07,0,0,0,1.07-1.06A1,1,0,0,0,471.61,324.39Zm-46.67-37.05Z" transform="translate(-282.08 -268.66)"/><path class="cls-1" d="M375.49,287.33c0-.05,0-.09,0-.16a.49.49,0,0,0,0-.11l-.06-.13,0-.06-.09-.11-.05-.05h0l0,0-.1-.07-.11-.07-.16-.08a6.87,6.87,0,0,0-2-.2h-.85a9,9,0,0,1-2.73-.26,2.75,2.75,0,0,1-2-2.64,2.41,2.41,0,0,0-.39-1.25l-.07-.11-.1-.14c-.09-.12-.19-.23-.31-.37l-.16-.18c-.3-.31-.58-.58-.74-.73a1.42,1.42,0,0,0-.39-.19,2,2,0,0,0-.7.05h-.05a12.64,12.64,0,0,0-2.95,1.33,5.15,5.15,0,0,0-2.77,3.88,19.47,19.47,0,0,0-.06,2.58v23.84a31.33,31.33,0,0,0,.25,4.24v.07c0,.07,0,.23.08.45a4.71,4.71,0,0,0,.13.56,11.35,11.35,0,0,0,.58,1.76c.95,2.24,4.05,7.47,12.45,7.47l1.22,0a1.08,1.08,0,0,0,1.07-1.07,1.06,1.06,0,0,0-.7-1s-1.18-.5-1.79-.83a9.34,9.34,0,0,1-2.69-2.13c-.08-.08-1.88-2-1.91-6.94V292.34a4,4,0,0,1,.07-.77v-.06a3.27,3.27,0,0,1,.85-1.66l.14-.11a7.55,7.55,0,0,1,3.18-.81c.56-.07,2.45-.31,3.19-.38a1.1,1.1,0,0,0,.84-1.07.22.22,0,0,0,0-.1Z" transform="translate(-282.08 -268.66)"/><path class="cls-1" d="M322.48,280.64a9.84,9.84,0,0,0-6.48-8.26c-.23-.09-.47-.17-.75-.26l-.43-.14-.21-.06a32.6,32.6,0,0,0-9.94-1.41c-.82,0-1.63.05-2.4.11s-1.37.11-2,.21-1.25.23-1.26.23l-.24.07c-1.87.23-3.37.29-3.38.29a16.11,16.11,0,0,1-5.5-1.09,27.31,27.31,0,0,0-2.83-1.19l-.62-.19a3.42,3.42,0,0,0-.51-.11,10.24,10.24,0,0,0-1.52-.17h-1.1a4.82,4.82,0,0,0-.62.05.66.66,0,0,0-.52.4.77.77,0,0,0,0,.56l0,.08c.06.2.12.42.19.63s.21.58.31.86l.25.58c.06.14.11.26.17.37.15.3.3.6.47.89a6.7,6.7,0,0,0,.69.94,2.72,2.72,0,0,0,.24.24,19,19,0,0,1,2.45,3.07,25.52,25.52,0,0,1,2.43,9.54v35.48c0,.27,0,.52,0,.71v.06a2.8,2.8,0,0,0,1.35,2.57,4.36,4.36,0,0,0,.42.23,5.83,5.83,0,0,0,2.37.44h.4a4.8,4.8,0,0,0,.55,0,4.32,4.32,0,0,0,1.78-.49,3.5,3.5,0,0,0,.73-.53,4.14,4.14,0,0,0,1.19-3h0V299.77c0-1.43,0-2.87,0-4.28v-.29c0-1.26,0-2.59,0-3.94,0-2.8,0-5,0-7,.07-1.61.18-3.21.32-4.75a6.87,6.87,0,0,1,.12-.88,5.16,5.16,0,0,1,3.66-3.9,9,9,0,0,1,1.72-.35h.19l.57,0a17.86,17.86,0,0,1,4.52.29c2.88.36,4.42,2,4.69,5,.2,2.18.33,4.41.39,6.61v9.13c0,.13,0,.25,0,.37v.12a13.27,13.27,0,0,1-.78,3.87,6,6,0,0,1-1.09,1.94,9.53,9.53,0,0,1-2.67,2.11c-.39.2-1,.47-1.32.62l-.49.21a1.06,1.06,0,0,0,.37,2.05c.42,0,.83,0,1.23,0h0c5.94,0,9.21-2.63,10.9-4.83a11.51,11.51,0,0,0,.91-1.36c.2-.36.37-.71.52-1.05a9,9,0,0,0,.53-1.59q.06-.24.12-.51c0-.24.07-.43.08-.47a26.16,26.16,0,0,0,.21-3.67h0v-9.45C322.71,282.71,322.6,281.66,322.48,280.64Z" transform="translate(-282.08 -268.66)"/></svg>